<?xml version="1.0" encoding="iso-8859-1"?>
<!-- Generator: Adobe Illustrator 19.0.0, SVG Export Plug-In . SVG Version: 6.00 Build 0)  -->
<svg version="1.1" id="Capa_1" xmlns="http://www.w3.org/2000/svg" xmlns:xlink="http://www.w3.org/1999/xlink" x="0px" y="0px"
	 viewBox="0 0 470 470" style="enable-background:new 0 0 470 470;" xml:space="preserve">
<g>
	<path style="fill:#BCC987;" d="M264.853,91.89c0-28.487-11.059-55.742-29.855-74.239C216.2,36.148,205.141,63.403,205.141,91.89
		c0,24.455,8.156,47.997,22.356,65.875v-39.703c0-4.142,3.358-7.5,7.5-7.5s7.5,3.358,7.5,7.5v39.703
		C256.696,139.887,264.853,116.346,264.853,91.89z"/>
	<path style="fill:#FCDB5A;" d="M178.353,340.63h-21.827L166.371,455h127.69l9.844-114.37h-95.552c-4.142,0-7.5-3.358-7.5-7.5h-15
		C185.853,337.273,182.495,340.63,178.353,340.63z"/>
	<path style="fill:#FD830C;" d="M148.399,292.151v33.479h0.064c0.023,0,29.89,0,29.89,0c4.142,0,7.5,3.358,7.5,7.5l15,0
		c0-4.142,3.358-7.5,7.5-7.5h103.679v-33.479H148.399z"/>
	<path style="fill:#BCC987;" d="M118.45,193.642c18.582,16.104,41.32,25.338,64.416,26.266l-29.946-25.938
		c-3.131-2.712-3.471-7.448-0.759-10.579s7.448-3.472,10.579-0.759l29.963,25.953c-4.205-22.451-16.657-44.043-35.146-60.067
		c-19.612-16.998-43.855-26.358-68.262-26.358c-2.474,0-4.945,0.099-7.393,0.296C83.567,148.777,96.921,174.984,118.45,193.642z"/>
	<path style="fill:#BCC987;" d="M317.081,193.97l-29.946,25.938c23.095-0.928,45.834-10.162,64.416-26.267
		c21.529-18.658,34.882-44.865,36.549-71.186c-2.448-0.197-4.919-0.296-7.393-0.296c-24.407,0-48.65,9.361-68.262,26.358
		c-18.49,16.024-30.941,37.617-35.146,60.067l29.963-25.953c3.13-2.713,7.868-2.372,10.579,0.759
		C320.552,186.522,320.212,191.258,317.081,193.97z"/>
	<path style="fill:#4D3D36;" d="M396.921,108.399c-5.298-0.823-10.753-1.24-16.215-1.24c-28.015,0-55.747,10.663-78.086,30.023
		c-26.054,22.58-41.18,53.656-41.873,85.737l-18.25,15.807v-59.054c23.782-21.533,37.355-53.312,37.355-87.784
		c0-35.736-14.583-68.581-40.009-90.113c-2.797-2.369-6.896-2.369-9.693,0c-25.427,21.532-40.009,54.377-40.009,90.113
		c0,34.471,13.573,66.25,37.356,87.784v59.049l-18.244-15.802c-0.692-32.081-15.819-63.158-41.873-85.737
		c-22.339-19.361-50.071-30.023-78.086-30.023c-5.461,0-10.917,0.417-16.215,1.24c-3.622,0.563-6.307,3.66-6.349,7.326
		c-0.38,33.317,14.89,65.848,41.895,89.252C130.965,224.338,158.697,235,186.713,235c4.26,0,8.513-0.262,12.694-0.764l28.09,24.33
		v18.584h-86.598c-4.142,0-7.5,3.358-7.5,7.5v48.479c0,4.142,3.358,7.5,7.5,7.5h0.572l10.545,122.513
		c0.333,3.878,3.579,6.857,7.472,6.857h141.455c3.893,0,7.139-2.979,7.472-6.857L318.96,340.63h0.572c4.142,0,7.5-3.358,7.5-7.5
		v-48.479c0-4.142-3.358-7.5-7.5-7.5h-77.035v-18.579l28.096-24.335c4.18,0.502,8.434,0.764,12.694,0.764
		c28.017,0,55.749-10.663,78.088-30.023c27.005-23.404,42.275-55.935,41.895-89.252C403.228,112.06,400.543,108.962,396.921,108.399
		z M157.556,148.518c18.49,16.024,30.941,37.617,35.146,60.067l-29.963-25.953c-3.131-2.713-7.867-2.372-10.579,0.759
		s-2.373,7.867,0.759,10.579l29.946,25.938c-23.096-0.928-45.834-10.163-64.416-26.266c-21.529-18.658-34.882-44.865-36.549-71.186
		c2.448-0.197,4.919-0.296,7.393-0.296C113.701,122.16,137.944,131.521,157.556,148.518z M312.032,325.63H208.353
		c-4.142,0-7.5,3.358-7.5,7.5c0,4.142,3.358,7.5,7.5,7.5h95.552L294.061,455h-127.69l-9.844-114.37h21.827
		c4.142,0,7.5-3.358,7.5-7.5c0-4.142-3.358-7.5-7.5-7.5h-29.867c-0.023,0-0.087,0-0.087,0v-33.479h163.632V325.63z M317.84,183.391
		c-2.711-3.131-7.449-3.472-10.579-0.759l-29.963,25.953c4.205-22.451,16.657-44.043,35.146-60.067
		c19.612-16.998,43.855-26.358,68.262-26.358c2.474,0,4.945,0.099,7.393,0.296c-1.667,26.321-15.02,52.528-36.549,71.186
		c-18.582,16.104-41.32,25.339-64.416,26.267l29.946-25.938C320.212,191.258,320.552,186.522,317.84,183.391z M234.997,110.563
		c-4.142,0-7.5,3.358-7.5,7.5v39.703c-14.2-17.879-22.356-41.42-22.356-65.875c0-28.487,11.059-55.742,29.856-74.239
		c18.797,18.498,29.855,45.752,29.855,74.239c0,24.455-8.156,47.997-22.355,65.875v-39.703
		C242.497,113.92,239.139,110.563,234.997,110.563z"/>
</g>
<g>
</g>
<g>
</g>
<g>
</g>
<g>
</g>
<g>
</g>
<g>
</g>
<g>
</g>
<g>
</g>
<g>
</g>
<g>
</g>
<g>
</g>
<g>
</g>
<g>
</g>
<g>
</g>
<g>
</g>
</svg>
