<?xml version="1.0" encoding="iso-8859-1"?>
<!-- Generator: Adobe Illustrator 16.0.0, SVG Export Plug-In . SVG Version: 6.00 Build 0)  -->
<!DOCTYPE svg PUBLIC "-//W3C//DTD SVG 1.1//EN" "http://www.w3.org/Graphics/SVG/1.1/DTD/svg11.dtd">
<svg version="1.1" id="Capa_1" xmlns="http://www.w3.org/2000/svg" xmlns:xlink="http://www.w3.org/1999/xlink" x="0px" y="0px"
	 width="934.7px" height="934.7px" viewBox="0 0 934.7 934.7" style="enable-background:new 0 0 934.7 934.7;" xml:space="preserve"
	>
<g>
	<g>
		<path d="M344.931,462.3v-68.5l45.6,43.5c4,3.8,8.9,6.6,14.2,8.2l68.8,20c6.7-15.9,17.4-29.7,31.4-40.601
			c7.899-6.1,16.6-11,25.899-14.699l-98.7-28.7c0,0-91.6-87.4-112.199-107c-20.101-19.2-42.7-33-71-35.5
			c-27.8-2.4-54.1,6.5-76.2,23.1l-130,98.101c-7.1,5.399-11.9,13.3-13.3,22L7.231,518.6c-3.1,18.8,9.7,36.601,28.6,39.7
			c1.9,0.3,3.8,0.5,5.6,0.5c16.6,0,31.3-12.1,34.1-29l20-122.7l41.2-31.1v86.3l-82.9,228c-2.9,7.7,2.9,16,11.1,16h71.7v181.9
			c0,25.699,20.8,46.5,46.5,46.5c25.7,0,46.5-20.801,46.5-46.5V706.3h22.4v181.9c0,25.699,20.8,46.5,46.5,46.5
			s46.5-20.801,46.5-46.5V706.3h71.7c8.3,0,14-8.2,11.1-16L344.931,462.3z"/>
		<path d="M712.431,531.8c-1.101,5.8,2.699,11.4,8.5,12.5l11.6,2.2c0.7,0.1,1.4,0.2,2,0.2c5,0,9.5-3.601,10.5-8.7l10.2-53.2
			c1.1-5.8-2.7-11.4-8.5-12.5l-11.601-2.2c-0.699-0.1-1.399-0.2-2-0.2c-5,0-9.5,3.601-10.5,8.7l-1.3,6.7c-1.3-0.1-2.6-0.1-3.899-0.1
			c-20.7,0-39.301,6.699-54.801,15.5c-4.3-38.301-33-71.101-72.8-78.7c-6-1.101-12-1.7-17.899-1.7c-7.7,0-15.2,0.9-22.5,2.7
			c-25.5,6.3-47.301,23.3-58.4,47.6c-2.8,6-4.9,12.5-6.2,19.4l0,0l-29.399,153.6c-1.101,6,2.8,11.7,8.699,12.9l156.801,30
			c0.699,0.1,1.399,0.2,2.1,0.2c5.2,0,9.8-3.7,10.8-8.9l22.7-118.7c11.1-11.3,32.1-28.899,56.5-30.899L712.431,531.8z
			 M623.331,516.6l-99.5-19.1c2.4-9.101,7.3-17,13.7-23.2c2.9-2.8,6.2-5.3,9.7-7.4c7.6-4.5,16.5-7,25.7-7
			c3.199,0,6.399,0.301,9.6,0.9C608.63,465.8,626.331,490.399,623.331,516.6z"/>
		<path d="M788.13,850.7v63.8c0,11,9,20,20,20s20-9,20-20v-63.8c-6.399,2.1-13.1,3.3-20,3.3C801.231,854,794.531,852.8,788.13,850.7
			z"/>
		<path d="M904.63,677.2c4.301-15.4,0.301-32.601-11.8-44.801c-9-9-20.7-13.399-32.5-13.399c-4.1,0-8.3,0.6-12.3,1.7
			c-7.9-13.9-22.8-23.301-40-23.301c-17.1,0-32.1,9.4-40,23.301c-4-1.101-8.2-1.7-12.3-1.7c-11.8,0-23.5,4.5-32.5,13.399
			c-12.101,12.101-16,29.301-11.8,44.801c-13.9,7.899-23.301,22.8-23.301,40c0,17.1,9.4,32.1,23.301,40
			c-4.301,15.399-0.301,32.6,11.8,44.8c9,9,20.7,13.399,32.5,13.399c4.1,0,8.3-0.6,12.3-1.699c4.6,8.1,11.6,14.6,20,18.699
			c6,2.9,12.8,4.601,20,4.601s14-1.7,20-4.601c8.4-4.1,15.4-10.6,20-18.699c4,1.1,8.2,1.699,12.3,1.699c11.8,0,23.5-4.5,32.5-13.399
			c12.101-12.101,16-29.3,11.8-44.8c13.9-7.9,23.301-22.801,23.301-40C928.031,700,918.63,685.1,904.63,677.2z M822.63,774.3
			c-4.6,1.2-9.5,1.8-14.5,1.8s-9.8-0.6-14.5-1.8c-25.6-6.5-44.6-29.7-44.6-57.2c0-32.5,26.5-59,59-59s59,26.5,59,59
			C867.13,744.7,848.231,767.899,822.63,774.3z"/>
		<circle cx="808.13" cy="717.1" r="44.6"/>
		<path d="M363.831,191c-8.7-4.7-27.8-18.2-27.8-46c0-36,9-145-95.5-145s-95.5,109-95.5,145c0,27.8-19.1,41.3-27.8,46
			c-2.6,1.4-3.8,4.4-2.9,7.1c5.8,18.6,20.4,24.3,36.1,24.3c24.1,0,50.6-13.4,50.6-13.4c-12.5-7.3-18.9-21.8-22-36.4
			c13.1,21.7,35.8,36,61.5,36s48.4-14.3,61.5-36c-3.1,14.7-9.5,29.1-22,36.4c0,0,26.5,13.4,50.6,13.4
			c15.601,0,30.301-5.6,36.101-24.3C367.63,195.4,366.431,192.4,363.831,191z"/>
	</g>
</g>
<g>
</g>
<g>
</g>
<g>
</g>
<g>
</g>
<g>
</g>
<g>
</g>
<g>
</g>
<g>
</g>
<g>
</g>
<g>
</g>
<g>
</g>
<g>
</g>
<g>
</g>
<g>
</g>
<g>
</g>
</svg>
